<svg width="250" height="140" viewBox="0 0 250 140" fill="none" xmlns="http://www.w3.org/2000/svg">
<g clip-path="url(#clip0_21_163)">
<rect width="250" height="140" fill="white"/>
<path d="M175.53 -11C209.246 -11 226.104 -11 244.46 -8.31667C264.315 -4.91778 280.05 2.59555 287.167 12.0767C293.161 20.8422 293.161 29.0711 293.161 45.1711V93.8289C293.161 109.929 293.161 117.979 287.542 126.744C280.424 136.226 264.69 143.739 244.835 147.138C226.104 150 209.246 150 175.53 150H73.6319C39.9157 150 23.0577 150 4.7011 147.317C-15.5286 143.739 -30.8882 136.404 -38.3806 126.744C-44 118.158 -44 110.108 -44 93.8289V45.1711C-44 29.0711 -44 21.0211 -38.3806 12.2556C-30.8882 2.77444 -15.5286 -4.73889 4.7011 -8.13778C22.683 -11 39.5411 -11 73.6319 -11H175.53Z" fill="url(#paint0_linear_21_163)"/>
<path d="M91.0891 93.6947C91.2238 93.4261 91.4933 93.2919 91.7629 93.1576C92.841 92.8891 93.9191 92.6206 94.9972 92.6206C97.9619 92.6206 100.657 93.6946 102.813 95.5742C103.083 95.8428 103.083 96.2455 102.948 96.5141L97.4229 105.912C96.3448 107.792 94.3233 108.866 92.3019 108.866C91.0891 108.866 89.8762 108.463 88.7981 107.657C86.3724 105.912 85.8333 102.421 87.3157 99.8705L91.0891 93.6947ZM162.917 79.3291C166.017 79.3291 168.712 81.6115 168.981 84.5651C169.251 88.0558 166.556 91.0095 163.187 91.0095H156.044L161.3 100.005C162.782 102.556 162.243 106.046 159.818 107.792C158.74 108.597 157.527 109 156.314 109C154.292 109 152.271 107.926 151.193 106.046L138.525 84.1624L128.553 66.9774C128.418 66.8432 128.418 66.7089 128.418 66.4404C128.418 65.7691 128.283 65.0978 128.283 64.4265C128.283 59.7275 129.361 55.0285 131.518 51.2693C131.787 50.8665 132.461 50.8665 132.73 51.2693L149.171 79.1948H162.917V79.3291ZM131.922 79.5976C134.887 81.343 136.773 84.6994 136.773 88.4586C136.773 89.2642 136.639 89.9354 136.504 90.741C136.504 90.8752 136.234 91.0095 136.1 91.0095H85.8333C82.4643 91.0095 79.6343 88.0558 80.0386 84.5651C80.3081 81.4772 83.0033 79.3291 86.1029 79.3291H99.4443L117.637 48.1814L112.651 39.7231C110.899 36.7695 112.112 32.876 115.346 31.5334C118.176 30.3251 121.41 31.5334 123.028 34.0843L124.51 36.6352L126.127 33.9501C127.879 30.9964 131.787 30.0566 134.617 32.0705C137.178 33.8158 137.717 37.3065 136.1 39.9916L112.92 79.3291H130.979C131.383 79.3291 131.652 79.4634 131.922 79.5976Z" fill="white"/>
</g>
<defs>
<linearGradient id="paint0_linear_21_163" x1="124.506" y1="-10.9284" x2="124.506" y2="149.964" gradientUnits="userSpaceOnUse">
<stop stop-color="#19E6FF"/>
<stop offset="1" stop-color="#1E51EE"/>
</linearGradient>
<clipPath id="clip0_21_163">
<rect width="250" height="140" fill="white"/>
</clipPath>
</defs>
</svg>
