<svg width="250" height="140" viewBox="0 0 250 140" fill="none" xmlns="http://www.w3.org/2000/svg">
<g clip-path="url(#clip0_22_189)">
<rect width="250" height="140" fill="white"/>
<path d="M175.53 -11C209.246 -11 226.104 -11 244.46 -8.31667C264.315 -4.91778 280.05 2.59555 287.167 12.0767C293.161 20.8422 293.161 29.0711 293.161 45.1711V93.8289C293.161 109.929 293.161 117.979 287.542 126.744C280.424 136.226 264.69 143.739 244.835 147.138C226.104 150 209.246 150 175.53 150H73.6319C39.9157 150 23.0577 150 4.7011 147.317C-15.5286 143.739 -30.8882 136.404 -38.3806 126.744C-44 118.158 -44 110.108 -44 93.8289V45.1711C-44 29.0711 -44 21.0211 -38.3806 12.2556C-30.8882 2.77444 -15.5286 -4.73889 4.7011 -8.13778C22.683 -11 39.5411 -11 73.6319 -11H175.53Z" fill="url(#paint0_linear_22_189)"/>
<path d="M35.3611 -11H222.439C266.413 -11 301.8 5.47567 301.8 25.9495V113.051C301.8 133.524 266.413 150 222.439 150H35.3611C-8.61314 150 -44 133.524 -44 113.051V25.9495C-44 5.47567 -8.61314 -11 35.3611 -11Z" fill="url(#paint1_linear_22_189)"/>
<path d="M77 51.3459V87.6703C77 95.6015 83.4394 102.016 91.3458 102.016H135.054C142.986 102.016 149.4 95.5766 149.4 87.6703V51.3459C149.4 43.4147 142.961 37.0001 135.054 37.0001H91.3707C83.4394 36.9752 77 43.4147 77 51.3459ZM171.304 41.6245L154.845 55.1996C153.378 56.4179 152.533 58.208 152.533 60.0975V78.8938C152.533 80.7833 153.353 82.5486 154.795 83.7669L171.255 97.5905C175.009 100.723 180.702 98.0629 180.702 93.1898V46.0501C180.727 41.2019 175.059 38.5167 171.304 41.6245Z" fill="white"/>
</g>
<defs>
<linearGradient id="paint0_linear_22_189" x1="124.506" y1="-10.9284" x2="124.506" y2="149.964" gradientUnits="userSpaceOnUse">
<stop stop-color="#19E6FF"/>
<stop offset="1" stop-color="#1E51EE"/>
</linearGradient>
<linearGradient id="paint1_linear_22_189" x1="127.891" y1="-7.63805" x2="128.339" y2="150.189" gradientUnits="userSpaceOnUse">
<stop stop-color="#5DF777"/>
<stop offset="1" stop-color="#0ABC28"/>
</linearGradient>
<clipPath id="clip0_22_189">
<rect width="250" height="140" fill="white"/>
</clipPath>
</defs>
</svg>
