<svg width="800" height="800" viewBox="0 0 800 800" fill="none" xmlns="http://www.w3.org/2000/svg">
<path d="M467.385 574.639C460.301 574.639 450.856 572.278 446.134 567.555L330.435 473.107C328.074 470.746 325.712 468.385 325.712 463.662V338.519C325.712 333.796 328.074 331.435 330.435 329.074L446.134 234.626C453.217 229.903 460.301 227.542 467.385 227.542C486.274 227.542 502.803 244.07 502.803 262.96V541.582C502.803 558.111 486.274 574.639 467.385 574.639ZM346.963 456.579L457.94 548.666C465.023 553.388 476.829 551.027 476.829 539.221V260.599C476.829 248.793 465.023 246.432 457.94 251.154L346.963 343.241V456.579Z" fill="black"/>
<path d="M335.157 475.468H264.321C257.237 475.468 252.515 470.746 252.515 463.662V338.518C252.515 331.435 257.237 326.712 264.321 326.712H335.157V475.468ZM276.127 451.856H323.351V350.324H276.127V451.856Z" fill="black"/>
<path d="M490.997 414.077H514.609C521.692 414.077 526.415 409.354 526.415 402.271V395.187C526.415 388.103 521.692 383.381 514.609 383.381H490.997V359.769H514.609C533.498 359.769 550.027 376.297 550.027 395.187V402.271C550.027 421.16 533.498 437.689 514.609 437.689H490.997V414.077Z" fill="black"/>
<path d="M566.555 577C564.194 577 559.472 577 557.11 574.639L226.542 244.07C221.819 239.348 221.819 232.264 226.542 227.542C231.264 222.819 238.348 222.819 243.07 227.542L573.639 558.11C578.361 562.833 578.361 569.916 573.639 574.639C573.639 577 568.916 577 566.555 577Z" fill="black"/>
</svg>
