<svg width="800" height="800" viewBox="0 0 800 800" fill="none" xmlns="http://www.w3.org/2000/svg">
<path d="M459.333 263V538M577 263V538M224 306.334V494.666C224 514.421 224 524.297 227.9 528.87C231.284 532.84 236.36 534.946 241.554 534.535C247.541 534.064 254.514 527.081 268.459 513.112L362.474 418.945C368.92 412.488 372.142 409.261 373.35 405.538C374.411 402.264 374.411 398.736 373.35 395.462C372.142 391.739 368.92 388.512 362.474 382.055L268.459 287.888C254.514 273.92 247.541 266.936 241.554 266.464C236.36 266.055 231.284 268.161 227.9 272.129C224 276.703 224 286.58 224 306.334Z" stroke="black" stroke-width="33" stroke-linecap="round" stroke-linejoin="round"/>
</svg>
