<svg width="800" height="800" viewBox="0 0 800 800" fill="none" xmlns="http://www.w3.org/2000/svg">
<path d="M183 278.308C183 248.314 207.314 224 237.308 224H563.154C593.148 224 617.461 248.314 617.461 278.308V468.385C617.461 498.379 593.148 522.692 563.154 522.692H237.308C207.314 522.692 183 498.379 183 468.385V278.308ZM237.308 251.154C222.311 251.154 210.154 263.311 210.154 278.308V468.385C210.154 483.382 222.311 495.538 237.308 495.538H563.154C578.151 495.538 590.308 483.382 590.308 468.385V278.308C590.308 263.311 578.151 251.154 563.154 251.154H237.308Z" fill="black"/>
<path d="M264.461 563.423C264.461 555.926 270.54 549.846 278.038 549.846H522.423C529.92 549.846 536 555.926 536 563.423C536 570.92 529.92 577 522.423 577H278.038C270.54 577 264.461 570.92 264.461 563.423Z" fill="black"/>
</svg>
